<svg viewBox="0 0 150 40" xmlns="http://www.w3.org/2000/svg" fill-rule="evenodd" clip-rule="evenodd" stroke-linejoin="round" stroke-miterlimit="1.4"><g fill-rule="nonzero"><path d="M38.3 31.4L34.7 34v-.2h-.2c-.5-.4-1-.8-1.2-1.2-.4-.4-.6-1-.6-1.5l-.3-7-.3-7-6.3 14.6-.8.6c-.4 0-.7.3-1 .4h-.3c0 .2-.2.2-.3.2h-.2c0 .2-.2.2-.2.2-.6-1.3-1-2.6-1.3-4-.3-1.3-.5-2.7-.5-4v-4.4c.2-1.4.2-2.8.2-4.2V12l.2-4.2v-1c-.3 0-.4-.2-.6 0h-.2s-.2 0-.3.3c-.7 1-1.3 2-1.7 3.3-.4 1.2-.8 2.4-1 3.6l-.3 1.5c0 .6-.2 1-.3 1.6v.7l-.2.6-.6 3.3-.8 4-1.5 4.8c-.5 1.6-1.2 2.8-2 3.8-.7.6-1.3 1-2 1.3-.8.3-1.6.5-2.4.4-1.7-.2-3-1-3.7-2.6-.8-1.5-1.3-3.2-1.5-5V25v-3l4.7-2v4c0 1.3 0 2.6.2 3.7l.8 3.5.2.5.3.6.7 1c.2.3.5.4 1 .4h.3l.5-.5c1-1.2 1.7-3 2.3-5.2l1.7-7c0-.6.2-1 .3-1.6l.3-1.4v-.6l.2-.6.3-1.5c0-.5 0-1 .2-1.5l1-4c.5-1.2 1-2.4 2-3.5.5-.7 1-1.4 2-2 .6-.7 1.4-1.2 2.4-1.5 0 0 .2 0 .3-.2h.5c.6 0 1 .3 1.3.8.3.6.5 1.2.5 2v19.1c-.2.8-.2 1.7-.2 2.5 1-2 1.8-4 2.6-6l2.5-5.8c0-.2.3-.4.6-.6l1.3-.8.3-.2.4-.2 1.2-.7 1-.6v.6c.2 0 .3.3.4.4v.4c.2.2.4.4.4.7l.2.7v9.7c0 1.6 0 3 .2 4.6v.6l.4.6v.2l.3.6.3.4zM56.7 26c-1 1-1.7 2-2.6 3l-2.6 2.8c-.3.5-.8.8-1.2 1-.5.4-1 .5-1.6.5-.8 0-1.5-.2-2-.7-.7-.5-1-1-1.5-1.8v.4l-1.3 1.5c-.5.5-1 .7-1.7.6h-.2c-.8 0-1.5-.6-2-1.6-.6-1-.8-2.2-.8-3.7v-.7-.7l.3-1.2c0-.5.2-1 .4-1.6.4-1 .8-1.7 1.4-2.5.7-.8 1.4-1.2 2.3-1.2h.7c0 .2.2.2.3.3h.2s0 .2.2.2V20h5.8v11c.4-.5 1-1 1.3-1.5l1.4-1.5 1.2-1.4 1.4-1.5h.2s.2-.2.3 0h.4l.2.5c0 .2 0 .2-.2.2v.3zm-12 2.3v-5.7-.2-.2l-.5-.5-.5-.2c-.4 0-.8.3-1 1-.2.5-.3 1-.3 2v.5c0 1 .3 1.7.6 2.5.3.7.7 1 1.2 1h.4v-.2zM74.2 26.5l-.5.6c0 .3-.2.5-.4.8v.2s-.2 0-.3.2L72 30l-1.3 1.6c-.5.7-1.2 1.3-2 1.8-.6.4-1.3.7-2 .7-.6 0-1 0-1.6-.3l-1.3-1.3c0-.2-.3-.4-.4-.6l-.6-.6c-.3-.4-.6-1-1-1.3-.2-.5-.6-1-1-1.3v4.6h-5v-4.7-14.3c0-1.5.2-2.7.4-3.8l1.2-2.8 1.4-2c.5-.4 1-.8 1.6-1 .2 0 .4 0 .6-.2h.7c.8 0 1.6.4 2.2 1.2.7.8 1 2 1 3.6v1c0 .2 0 .5-.2.8 0 1.6-.6 3-1.3 4.6-.7 1.5-1.5 2.8-2.5 4v4.2l.4-.8.7-1 1.5-1.7c.6-.6 1.2-1 1.8-1H66c.3 0 .5 0 .7.2.4.3.7.6.8 1 .2.4.2 1 .2 1.4v.7c0 .2 0 .5-.2.8 0 .6-.3 1.2-.6 1.7l-1 1.5v.4l-.4.4 4.6 2.7.7-1 .6-1 .8-1.2.7-1 .3-.3h.8l.3.5v.5zm-11-3c-.5 0-1 .3-1.2.7-.2.4-.4.8-.5 1.4V27h.2c.5 0 1-.2 1.4-.5l1-1.3v-.4-.4c0-.2 0-.4-.2-.6l-.6-.2zM63 6.8l-.3-.4s-.2 0-.3-.2H62c-.2 0-.4.2-.5.4l-.5.7c-.2.6-.4 1.2-.4 1.8l-.2 2v6.7l.3-.3v-.4c.5-.7 1-1.5 1.3-2.4l1-2.8v-1l.2-1.3c0-.5 0-1-.2-1.4 0-.5-.2-1-.4-1.3zM92.5 24.6l-1.3 1.7L90 28l-1.2 1.5-1.3 1.7c-.4.5-.8 1-1.4 1.4l-1.5.8H84l-.7.2c-.8 0-1.4-.3-2-.8-.5-.5-.8-1.3-.8-2.5v-.8-.8c-.2-.2-.2-.5-.2-.7v-.8c0 .3-.3.7-.5 1L79 30c-.4.8-1 1.5-1.5 2-.6.8-1.2 1-2 1h-.3-.4c-.4-.3-.8-.6-1-1-.3-.4-.4-1-.5-1.4V30v-.7c-.2-1.3-.2-2.7-.2-4V21l5-1.7.4 9 1.5-3.8 1-3.7 5-1V25l.4 5.5 2-2.4 1.8-2.4.6-1 .6-.8.3-.2h.3c.2 0 .3 0 .5.2v.8zM120 24.7c0 .4-.3 1-.8 1.8s-1 1.6-1.8 2.5l-1.4 1.5-1.4 1.4h-.2s0 .2-.2.2l-.2.2s-.2 0-.2.2l-1 .6c-.5.3-1 .4-1.3.5h-.4-1l-.7-.4c-.3-.2-.5-.6-.7-1-.2-.6-.4-1.2-.4-2L108 28l-.3-2.4-2.3 4.7.2 3h-5.2l-.4-7.7-4 7.7h-4l-.2-6.5c0-2.2 0-4.4-.2-6.6l5.3.3v8l1-1.7.8-1.7 1-1.5c0-.5.4-1 .7-1.6.3-.6.7-1 1-1.4.5-.4 1-.5 1.6-.5h.5c.4.2.8.4 1 .7.4.3.6.7.6 1 0 .6 0 1 .2 1.5v3c0 .5 0 1 .2 1.5l1.4-3 1.4-2.8c.2-.6.6-1 1-1.4.5-.4 1-.5 1.6-.5.2 0 .4 0 .7.2.2 0 .4.2.6.4.3 0 .4.3.5.4l.2.5v.2l.5 4.7c0 1.5.3 3 .4 4.6l1.4-1.2c.4-.5 1-1 1.2-1.4L118 26c.5-.7.7-1.2.8-1.6 0 0 0-.2.2-.3H120v.6z"/><path d="M129.2 21.7l.4 1.3v3.4c-.5 1.8-1.3 3.3-2.4 4.8-1.2 1.4-2.5 2-4 2h-.4c-2 0-3.2-1-4-3-.7-2-1-4.5-1-7.4v-2c0-.7 0-1.5.2-2.2 0-2 .4-3.8 1-5.6.3-1.7.8-3.2 1.4-4.5l.4-.8.4-.8c.5-.8 1-1.5 1.6-2 .7-.7 1.4-1 2.2-1h.5c.5.2 1 .6 1.2 1.4.3.7.5 1.7.5 3v1.4l-.4 1.8-.3 1.4-.7 2c-.4 1-1 1.8-1.5 2.6-.6.8-1.2 1.2-2 1.2v2.8l.2 1c.5-.7 1-1.3 1.8-1.8.7-.5 1.5-.8 2.3-.8.6 0 1 .2 1.5.5s1 .7 1.2 1.2zm-2.3 7.5l.4-1.2c.2-.4.2-1 .2-1.4v-.4c0-.4 0-.7-.2-1l-.5-1-.6-.6c-.2 0-.3-.2-.5-.3h-.5-.3c-.5 0-1 0-1.4.5-.5.4-.8 1-1 1.5l.2 1c0 .4 0 .7.2 1 0 .5 0 .8.2 1.2 0 .3 0 .7.2 1l.8.6c.2.2.5.2.8.2.3 0 .6 0 1-.3l.7-.8zm-1.4-18l.3-1.8V7.7 6.3l-.4-.8h-.2-.2c-1 0-1.6 1.3-2.2 3.5-.5 2.3-.8 5.2-.7 8.6.5 0 1-.3 1.3-1 .4-.7.8-1.4 1-2.3l.7-1.8c0-.6.2-1 .3-1.2zM148.6 26c-1 1-1.7 2-2.6 3-1 .8-1.8 1.8-2.7 2.8-.4.5-.8.8-1.2 1-.4.4-1 .5-1.5.5-.8 0-1.5-.2-2-.7-.7-.5-1-1-1.5-1.8v.2l-.2.2-1.2 1.5c-.5.5-1 .7-1.7.6h-.3c-.8 0-1.5-.6-2-1.6-.6-1-.8-2.2-.8-3.7v-.7-.7c0-.3 0-.8.2-1.2 0-.5.2-1 .4-1.6.3-1 .8-1.7 1.4-2.5.6-.8 1.3-1.2 2.2-1.2h.7c0 .2 0 .2.2.3h.2s0 .2.2.2V20h5.7v11l1.4-1.5c.5-.5 1-1 1.3-1.5l1.3-1.4 1.4-1.5h.2s0-.2 0 0h.6l.2.5v.2c0 .2-.2.2-.2.3zm-12 2.3v-5.7-.2l-.2-.2c0-.2-.2-.3-.3-.5l-.4-.2c-.4 0-.8.3-1 1-.2.5-.3 1-.3 2v.5c0 1 .3 1.7.6 2.5.2.7.6 1 1 1h.5v-.2z"/><path d="M37.2 31.3l-3.5 2.5-.2-.2-1.3-1c-.3-.5-.5-1-.5-1.6l-.4-7c0-2.3 0-4.7-.2-7l-6.3 14.5-.8.6-1 .5h-.4c0 .2-.2.2-.3.2H22v.2c-.6-1.4-1-2.7-1.3-4-.3-1.4-.5-2.8-.5-4.2v-4.3c.2-1.4.2-2.8.2-4.2V12l.2-4.3c0-.4 0-.6-.2-1l-.4-.2h-.2c0 .2-.2.3-.3.4-.8 1-1.3 2-1.7 3.2-.5 1.2-.8 2.4-1 3.6 0 .6-.2 1-.3 1.6l-.3 1.6v.6l-.2.5-.6 3.5-.8 3.8c-.4 1.7-1 3.4-1.5 5-.5 1.5-1.2 2.8-2 3.8-.7.7-1.4 1-2 1.4-.8.3-1.6.4-2.4.4-1.7-.2-3-1-3.7-2.5-.8-1.6-1.3-3.2-1.5-5v-3.5V22L6 20v4c0 1.2.2 2.4.4 3.6.2 1.2.4 2.4.8 3.5l.2.6.3.6.7 1c.2.3.5.4 1 .4h.3l.5-.5c1-1 1.7-2.8 2.3-5l1.7-7.2.3-1.5.2-1.4c0-.3 0-.5.2-.7v-.6c0-.5 0-1 .2-1.5l.3-1.5 1-4c.5-1.2 1-2.4 2-3.5.5-.8 1-1.5 1.8-2C21 3.4 22 3 22.8 2.6c.2 0 .3 0 .5-.2h.4c.7 0 1 .3 1.3.8.3.6.4 1.2.5 1.8V22c0 .7 0 1.6-.2 2.4V27c1-2 1.7-4 2.6-6l2.5-6 .6-.6 1.3-.8s.2 0 .3-.2l.4-.2 1.2-.7 1-.5v.5c.2 0 .3.3.4.4v.2l.4.8.2.6v9.8c0 1.5 0 3 .2 4.6v.5l.3.6v.3h.2v.6s.2 0 .2.3zM55.7 25.8c-1 1-1.8 2-2.6 3l-2.6 3-1.2 1c-.5.3-1 .4-1.6.4-.8 0-1.5-.2-2-.7-.7-.6-1-1.2-1.5-1.8v.2l-1.3 1.6c-.5.4-1 .7-1.7.6h-.2c-.8 0-1.5-.6-2-1.6-.6-1-.8-2.3-.8-3.7V27v-.7c0-.3 0-.8.3-1.3 0-.5.2-1 .4-1.5.3-1 .8-1.8 1.4-2.6.7-.7 1.4-1 2.3-1h.7s.2 0 .3.2h.2s0 .2.2.2V20h5.7v10.8l1.4-1.4c.4-.5 1-1 1.3-1.5l1.4-1.6 1.3-1.4.3-.2h.7l.2.6s0 .2-.2.2v.2zm-12 2.3v-5.5-.2l-.2-.2-.3-.4-.5-.2c-.4 0-.8.3-1 1-.2.4-.3 1-.3 2v.5c0 .8.3 1.6.6 2.3.3.8.7 1.2 1.2 1.2h.2s0-.2.2-.2V28zM73.2 26.3l-.5.7c0 .2-.3.4-.4.6v.2c-.2 0-.2.2-.3.2l-1 1.8-1.3 1.7c-.5.7-1.2 1.3-2 1.7-.6.5-1.3.7-2 .7-.6 0-1-.2-1.6-.5-.4-.2-.8-.6-1.3-1.2 0-.2-.3-.4-.5-.6 0-.2-.3-.4-.5-.6l-1-1.2-1-1.3v4.7h-5v-4.7V14c0-1.3 0-2.5.4-3.6l1.2-2.8c.4-.8 1-1.4 1.4-2 .5-.4 1-.8 1.6-1l.6-.2h.7c.8 0 1.6.3 2.2 1.2.6.8 1 2 1 3.6v1c0 .2 0 .5-.2.7-.2 1.5-.6 3-1.3 4.5-.7 1.5-1.5 2.8-2.5 4v4.2c0-.3.3-.5.4-.8l.7-1c.4-.7 1-1.3 1.5-1.8.6-.6 1.2-1 1.8-1h.2l.3-.2h.6l.7.4c.4.3.6.6.8 1l.2 1.4v.8c0 .2 0 .5-.2.8L66 25c-.4.7-.6 1.2-1 1.6 0 0 0 .2-.2.3l-.2.2 4.6 2.8.7-1 .6-1.2.8-1 .7-1.2c.2 0 .2 0 .3-.2h.8l.3.5v.3zm-11-2.8c-.5 0-1 .2-1.2.6l-.5 1.4V27c.7 0 1-.3 1.5-.7.4-.3.7-.7 1-1.2v-.3-.4c0-.2 0-.4-.2-.6 0-.2-.3-.2-.6-.2zm-.3-17c-.2 0-.3-.2-.3-.3 0 0-.2 0-.3-.2H61c-.2 0-.4 0-.5.2l-.5.8c-.2.5-.4 1-.5 1.7v8.8s0-.2.2-.3v-.3c.5-.7 1-1.5 1.3-2.4l1-2.8v-1V9 7.8c0-.5-.2-1-.4-1.3z" fill="#fff"/><path d="M91.5 24.5c-.5.5-1 1-1.3 1.6L89 28l-1.2 1.6c-.5.6-1 1-1.3 1.7-.4.6-.8 1-1.4 1.4-.4.4-1 .7-1.5 1h-.7-.6c-.7 0-1.3-.2-1.8-.7-.6-.5-1-1.4-1-2.5v-.8-.8-.8-.7l-.6 1.2-.8 1.5-1.5 2c-.6.7-1.2 1-2 1h-.3-.4c-.5-.3-.8-.6-1-1-.3-.5-.5-1-.5-1.4v-.5-.6l-.3-4V21l5-1.8.4 9 1.5-3.8 1-3.7 5-1.2V25l.4 5.4 2-2.4 1.8-2.6.6-.8.6-1h.3c0-.2.2-.2.3 0h.4c.2.2.2.3.2.5v.5zM119 24.6c0 .4-.3 1-.8 1.8l-1.8 2.5-1.4 1.4-1.4 1.3s0 .2-.2.2h-.2c0 .2 0 .2-.2.3 0 0-.2 0-.2.2l-1 .6-1.3.6h-.4-1l-.7-.4c-.3-.2-.6-.6-.7-1-.2-.6-.4-1.2-.4-2L107 28l-.3-2.5-2.3 4.7.2 3h-5.2l-.4-7.7-4 7.7h-4l-.2-6.5c0-2.2 0-4.4-.2-6.6l5.3.4v8l1-1.7.8-1.7.8-1.6 1-1.7c.2-.5.5-1 1-1.2.4-.4 1-.6 1.5-.6h.5c.4 0 .8.3 1 .6.4.3.6.6.6 1v1.5l.2 1.6v3.1l1.6-3 1.4-2.8c.2-.5.6-1 1-1.3.5-.4 1-.6 1.5-.6h.8l.6.5c.3 0 .4.2.5.4l.2.4v.2l.5 4.7c0 1.5.3 3 .4 4.6l1.4-1.3 1.2-1.4L117 26c.5-.8.7-1.4.8-1.7 0 0 0-.3.2-.3l.2-.2h.2c.2 0 .3 0 .4.2.2 0 .3.3.3.4v.2z" fill="#fff"/><path d="M128 21.6c.4.4.5.8.6 1.2v3.5c-.5 1.7-1.3 3.3-2.4 4.8-1.2 1.5-2.6 2.2-4 2.2h-.4c-2-.2-3.2-1.2-4-3.2-.7-2-1-4.4-1-7.3v-2-2.2l1-5.6c.5-1.8 1-3.3 1.6-4.6 0-.3.2-.5.3-.8l.5-.8c.4-.8 1-1.4 1.6-2 .7-.6 1.4-1 2.2-1h.5c.5.2 1 .7 1.2 1.5.3.7.5 1.7.5 3v1.4l-.4 1.7-.3 1.5-.7 1.8c-.4 1-1 2-1.5 2.7-.6.8-1.3 1.2-2 1.2v2.8l.2 1c.5-.7 1-1.3 1.8-1.8.7-.5 1.4-.8 2.3-.8.5 0 1 0 1.5.4.5.3 1 .7 1 1.2zM126 29c.3-.2.5-.6.6-1 .2-.5.2-1 .2-1.5V26c0-.3 0-.7-.2-1-.2-.4-.3-.7-.6-1 0-.2-.3-.4-.4-.5l-.5-.3h-.5-.3c-.5 0-1 0-1.4.5-.5.4-.8 1-1 1.5l.2 1c0 .4 0 .7.2 1 0 .4 0 .8.2 1 0 .5 0 .8.2 1.2l.7.5h.8c.5 0 .8 0 1-.2.3 0 .6-.4.8-.7zm-1.2-17.8c0-.7.2-1.4.3-2V7.6 6.2c-.2-.4-.3-.7-.5-.8h-.3c-1 0-1.6 1.2-2.2 3.5-.5 2.2-.8 5-.7 8.5.4 0 1-.4 1.3-1 .4-.7.8-1.5 1-2.3l.7-1.8c0-.6.2-1 .3-1.2zM147.6 25.8l-2.7 3-2.7 3-1.2 1c-.4.3-1 .4-1.5.4-.8 0-1.5-.2-2-.7-.7-.6-1.2-1.2-1.5-1.8v.2h-.2c-.3.6-.7 1-1.2 1.6-.5.4-1 .7-1.7.6h-.2c-1 0-1.6-.6-2.2-1.6-.5-1-.7-2.3-.7-3.7V27v-.7-1.3l.6-1.5c.3-1 .8-1.8 1.4-2.6.6-.7 1.3-1 2.2-1h.7l.2.2h.2s0 .2.2.2V20h5.7v10.8l1.4-1.4c.4-.5 1-1 1.3-1.5.4-.6 1-1 1.3-1.6l1.3-1.4.3-.2h.6l.2.6v.2l-.2.2zm-12 2.3v-5.5-.2l-.2-.2-.3-.4-.4-.2c-.5 0-.8.3-1 1-.2.4-.3 1-.3 2v.5c0 .8.3 1.6.6 2.3.2.8.6 1.2 1 1.2h.2l.3-.2V28z" fill="#fff"/></g></svg>