<svg viewBox="0 0 300 300" xmlns="http://www.w3.org/2000/svg" fill-rule="evenodd" clip-rule="evenodd" stroke-linejoin="round" stroke-miterlimit="1.4">
  <circle cx="150" cy="150" r="150" fill="url(#a)"/>
  <path d="M102.2 36.4S105.4 21.7 152 19c0 0 44.4-4 50.2 13.2 0 0 2.2 1-.2 7 0 0-10 13.2-56.2 11.4 0 0-50.3 1.2-43.6-14.2z" fill="#231F20" fill-rule="nonzero"/>
  <path d="M101.4 34.4S88.6 50.8 135 53c0 0 60 3.8 71.5-15.7 0 0 .3-4-3.7-7.5 0 0 6.4 0 7 13.8 0 0-.2 3.7-1 5 0 0-1.4 2.2-1.3 5.2 0 0-.3 1.2-1.5 1.2 0 0-3.2.2.5 3.5 0 0 3.4 5.5.8 16.5 0 0-1.7 5.8-1.6 9.6 0 0-.8 6.2.4 10.6 0 0 2.6-1.6 3.6-.2v5.3l-1.4 1.3s1.2 1.7.6 3.5c0 0 2 .6 2 5.6 0 0 0 2.4-1.5 3 0 0-.7-3.5-1.7-3.4 0 0-.4 9.2-6 8 0 0-5.7-1.2-5.3-31.3 0 0 4.8-1.3 6.5-4.3 0 0 .7-1.2 1.7-2.2 0 0 4.4-14 .5-18.3 0 0-.8 1.2-2.5 0 0 0-.5-7.8-3.7-8.2 0 0-26.2 8-48.6 7.7 0 0-7-1.7-9.5 10.3l-2.7.2-1 22.8h9s-1 5 .7 11.8c0 0 2 21.5-8 23.8 0 0-8.3 2.8-10.2-14.5 0 0-1-6.3.2-13.8 0 0 1-6.8-.3-7.6l6-.4.2-21.5-1.7-.3s-1.6-12-7-11.7c0 0-21.4-3-28.7-8.7 0 0-6.3 1.8-3.4 14.4 0 0 3 8.4 2.4 13.7 0 0-1.7 5-1.3 7.3l2 .2s-.5-12 3.8-13.5c0 0-2.3 13-2 19 0 0 1.6 15.8-2 15.5 0 0-1.4-3-.7-9.5 0 0 1.4-4.2 1-6l-2.8.2s-.2 2.4-1 4.2l.3 3.6-2.8.7s-1.2-2.6-.2-6c0 0 2-4.3-.2-7.8l2.7-.6s4.6-11.8-.6-19.2c0 0-5.7-12.3 3.2-19 0 0-1-6.8 5.8-14.8z" fill="#231F20" fill-rule="nonzero"/>
  <path d="M102.2 57.6s16.5 6 25 5.4c0 0 4 2.8 4.2 11.3h1.4s1 3.4.6 18l-6.4.3s.7 5.8-.3 10.6c0 0-3.8 26.2 10.8 30 0 0 14.5 2 10.5-28.8 0 0-1.3-7 0-11.7l-9-.2.2-18.3 2.5-.2s1.7-10.7 10.6-10c0 0 35-3.5 44.8-7.3 0 0 4-2.6 4 8l4-.2s-1 20.8-11 20.5c0 0-2.2 38.2 9.8 35 0 0 3.2-1.2 4.6-4.8h1.6s1 43-7 71.2c0 0-20.6 66-22.5 89.6 0 0-6.6 17.4-38.8 9.2 0 0-11.4.6-13.7-12.3 0 0-18.2-77.2-21.3-83.6 0 0-12.6-41.7-9.3-79 0 0 4.4-1.8 3-17.7 0 0-.4-7.8 1.7-18.6 0 0 .5-3.7-.3-5.8 0 0-1-10.5.5-10.6z" fill="#231F20" fill-rule="nonzero"/>
  <path d="M208 78.7s-2.6 7.3-1 14c0 0 1-.7 2.3 0 0 0-.3-9.8-1.4-14z" fill="#231F20" fill-rule="nonzero"/>
  <path d="M126.6 267.5s4.6 17.3 27.8 17.7c0 0 20 3 26.6-14.8 0 0 3.2 20.6-28 19.8 0 0-27-1.2-26.4-22.7z" fill="#fff" fill-rule="nonzero"/>
  <path d="M96.4 55.5s2 1.6 3.7 2c0 0-.6 5 0 12 0 0 1.2 0 1 2.3 0 0-1.3-.5-2.8 1.8 0 0-5-10-1.8-18z" fill="#231F20" fill-rule="nonzero"/>
  <path d="M119.2 236.4S151 261 187 243l-2 8.2s-34.8 14.7-63.8-6.5l-2-8.3zM131.8 99.4s4.7.7 10.3-.7c0 0 0 7.4 1.5 11.2 0 0 3 17.2-6 16.2 0 0-8.6-1.2-5.8-19 0 0 .8-6.2 0-7.8zM101.5 46.6s6 10.4 45 8.6c0 0-31.2 6-47.5-6.8 0 0-.7-3.6 2.5-1.8zM202.3 89.6s-3.3 2.6-3.8 1.6c0 0-.6 18 4 22 0 0 2.5 1.7 3-5.5 0 0-.3-9-1.6-11 0 0-1.2-3.4-1.7-7z" fill="#fff" fill-rule="nonzero"/>
  <path d="M134.5 103.3l5.8.3-1 7.5-2.5-2.6 1.2 8 3.2-1.7s-1.2 5.6-2.2 6c-1 .4-4.2-.7-4.2-.7l-.3-16.7z" fill="#231F20" fill-rule="nonzero"/>
  <path d="M109.8 36s2.8-10.8 42-13c0 0 37.5-3.2 42.3 9.2 0 0 2 .8 0 5 0 0-8.5 9.7-47.5 8.8 0 0-42.4 1.2-36.7-10z" fill="#fff" fill-rule="nonzero"/>
  <path d="M200 96.5l2.4-.7 1 6-1-1 .5 5 .8-2s.3 3 .2 3.3c-.2.5-2 2-2 2l-2-12.5z" fill="#231F20" fill-rule="nonzero"/>
  <path d="M207.2 40.6s1 7.3-2.5 9.5c0 0-1.6 1.8-4.5 1.2 0 0 3.6-1 4-5.3 0 0 1-5.8 3-5.4zM123 252.2s27.5 24 60.5 5l-1.4 7s-28 16-57.3-4.6l-1.6-7.4zM90.3 259s-11.2-.8-11.4 3.5c0 0-1.4 3.4 9.2 4.6 0 0 2 .4 2 2.3V259z" fill="#fff" fill-rule="nonzero"/>
  <path d="M236.2 259l7.8-13.7s-11.6 4.6-19 4.6c0 0 2.5-22.4 0-26.6 0 0-5.4-7.2-30.3-8H106.4c-25 .8-30.5 8-30.5 8-1 8 0 26.5 0 26.5-7.2 0-18.8-4.7-18.8-4.7l7.8 13.6-7.8 8.6c27 8.6 33 4.3 33 4.3.4-3.7-3.8-4.8-3.8-4.8-12-2.5-9.6-8-9.6-8 4.5-5.7 21-5.7 21-5.7h106s16.2 0 20.7 5.8c0 0 2.6 5.4-9.5 8 0 0-4.3 1-3.8 4.6 0 0 6 4.2 33-4.4l-7.8-8.7z" fill="#fff" fill-rule="nonzero"/>
  <path d="M210.6 259s11.2-.8 11.5 3.5c0 0 1.3 3.4-9.2 4.6 0 0-2.2.4-2.2 2.3V259z" fill="#fff" fill-rule="nonzero"/>
  <path d="M209.4 226.7c0 .8-.3 1.7-.5 2.5l-1 2.3V229v-1.2-1.2-1.5c0-.4 0-.8.2-1.2v-.3c.2 0 .3-.2.3-.3l.3-.2h.2c.2.4.3.6.3 1l.2 1v1.7zm2 12v-.2-.2-.4l-.4-.3h-.2v.2c-.2 0-.4.4-.5.6l-.5.6-.5.6-.5.7s-.2 0-.2.2h-.5v-.8-3.6-3.4l1.4-3c.4-1 .6-2.3.7-3.4.2-.2.2-.4.2-.6v-.6-.6-.6l-.5-1.5c-.3-.5-.6-.8-1-1h-.2c-.6 0-1 .3-1.4.7l-.8 1.3s0 .2-.2.3v.2l-.7 2c-.2 1-.3 1.8-.3 3V240.5c0 .5.2 1 .4 1.4.2.5.5.8 1 1h.2c0 .2.2.2.3.2.2 0 .5 0 .8-.3l.7-.8.7-1 .7-.8c0-.3.4-.6.6-1l.7-.8zm-10 .5h-.2-.7l-.4-.4-.4-.4-.3-.4s0-.2-.2-.3v-.2c-.2 0-.2-.3-.3-.4v-.4l-.3-.5v-.3-.4-.4c0-.3 0-.4.2-.5h.8c0 .2.3.3.4.4l.3.3.3.4.2.3s0 .2.2.3v.4c.2 0 .2.3.3.4v.6c.2 0 .2.3.2.4v.8c0 .2 0 .3-.2.4zm4.8-3v-.2-.3h-.6l-.3.4c0 .2 0 .3-.2.4l-1 1.3c-.6.4-1 .6-1.5.6v-.5-.5-1.4c0-1-.2-2-.6-2.6-.3-.8-1-1.2-1.7-1.2-.5 0-1 0-1.3.4l-1.2 1.2-1 2c0 .6-.3 1.4-.4 2.2v.7c0 .5 0 1 .2 1.5 0 .5.2 1 .4 1.4.3.6.6 1 1 1.2.3.2.6.4 1 .4h.3c.4 0 .7-.3 1-.6.5-.3.8-.6 1-1l.7-1.2.4-1.2h.2c.7 0 1.3-.2 2-.8.5-.5 1-1 1.4-1.8 0-.2 0-.2.2-.3zm-13.3 3h-.3-.2-.2-.3l-.4-.4-.4-.4-.3-.4c-.2 0-.2-.2-.3-.3v-.2c-.2 0-.2-.3-.3-.4l-.2-.4v-.5s0-.2-.2-.3v-.4-.4c0-.3.2-.4.2-.5H191c0 .2.2.3.4.4l.3.3s0 .3.2.4l.2.3v.3c.2 0 .2.2.3.4 0 0 0 .3.2.4V239.3zm4.6-3v-.2-.3h-.3-.2l-.2.4-.2.4-1 1.3c-.6.4-1 .6-1.5.6v-.5-.5-1.4c0-1-.2-2-.6-2.6-.4-.8-1-1.2-1.8-1.2-.4 0-.8 0-1.3.4-.4.3-.7.7-1 1.2-.5.5-.8 1.2-1 2-.3.6-.4 1.4-.5 2.2v2.2l.6 1.4c.3.6.6 1 1 1.2.3.2.6.4 1 .4h.3c.3 0 .7-.3 1-.6.4-.3.8-.6 1-1l.6-1.2.5-1.2h.2c.7 0 1.3-.2 2-.8.5-.5 1-1 1.4-1.8 0-.2 0-.2.2-.3zm-14.8-10.8v.8c0 1-.3 2-.6 2.8-.2 1-.6 1.7-1 2.5V229v-1.2-1.2-.7-1l.4-1.4c0-.4.3-.6.5-.6.3 0 .4 0 .5.4 0 .2 0 .5.2.8V225.4zm6 11.3v-.2-.4h-.3c-.2 0-.3 0-.3.2l-.6 1.2-.6 1.2-.6 1.2-.6 1.2v-1.6l-.2-1.6v-1.6l-.2-1.6c0-.3 0-.6-.3-.8 0-.2-.4-.4-.6-.4h-.2c-.4 0-.6 0-1 .4l-.4 1-.4 1-.4 1-.4 1-.3.8V233c.5-1 1-1.8 1.4-3 .3-1 .6-2 .7-3.2v-.7-.7-.2-1c0-.4-.2-.7-.3-1 0-.4-.3-.7-.5-1l-.7-.2h-.2-.2c-.4.2-.8.4-1 .8-.5.4-.8 1-1 1.3l-.2.2-.6 2c-.2 1-.2 1.8-.2 3V243.2h3v-2.5l1-3.2.2 1.7c0 .6 0 1.2.2 1.8 0 .8.2 1.4.5 1.8.3.4.6.6 1 .6h.3s.2 0 .3-.2c.2 0 .4-.3.7-.6l.7-1 .6-1.2.6-1.3.6-1 .6-1.3zm-10 .5h.2v-.3-.4h-.3-.2l-.6.8-.7 1v.2c-.2 0-.3.2-.3.3-.3 0-.5.3-.7.5l-.8.2c-.3 0-.5 0-.8-.2l-.7-.7c-.4-.4-.6-1-.7-1.4-.2-.5-.3-1-.3-1.6v-1l.4-1.2 1 .7.7 1v.2c.2 0 .2 0 .2.2l.8-3-.8-.7c-.3-.2-.6-.3-1-.3-.7 0-1.3.4-1.8 1.2-.5.6-1 1.5-1.2 2.4 0 .4 0 .7-.2 1v1c0 1.6 0 3 .5 4 .4 1 1 1.7 1.8 1.8h.2c.5 0 1-.2 1.4-.6l1-1.2c.2 0 .3-.2.4-.3l.3-.3c.4-.5.8-1 1-1.7.5-.6 1-1.2 1.2-1.8zm-8-14.5v-.2-.2-.3c-.2 0-.2-.2-.3-.2h-.2l-1.3 1.3-1.2 1.4c-.3-1-.7-1.7-1.4-2-.7-.5-1.5-.7-2.3-.7H163l-1.8.6c-.6 0-1 .4-1.6.6h-.2-.2l-.8.6-1 .8c-.6.6-1.2 1.2-1.7 2-.5.7-.7 1.5-.7 2.3v.8l1 1.5 1.4 1 .5.2.4.2 1.8.6c.7 0 1.3.3 2 .4.4 0 1 .2 1.4.4.5 0 1 .2 1.4.4.3 0 .5 0 .8.2.2 0 .5 0 .8.2.6.2 1 .6 1.6 1 .5.3.8 1 .7 1.7 0 1.2-.6 2-1.7 2.4-1 .4-2.3.7-3.6.7h-2.3l-1.5-.3h-1c-1.6-.4-3-1-4.4-2-1.3-1-2.5-2.2-3.6-3.7v-.2h-.2c-.2 0-.3 0-.3.2l-.2.3v.2l.8 1.4 1 1.5c0 .2.2.3.4.5l.4.4c1 1.2 2.3 2.3 3.8 3.2 1.5 1 3 1.5 4.5 1.8H162.4c.7 0 1.3 0 2-.2.5 0 1-.4 1.7-.7l1-.7.8-1c.5-.5 1-1 1.5-1.8.4-.7.8-1.5 1-2.2l.3-1v-.7-.5-.6c-.4-1-1-1.6-2-2-.8-.5-1.8-1-2.8-1.2l-2.2-.4c-.7 0-1.3-.2-1.7-.3h-1l-.6-.2-3-.7c-.8 0-1.3-.3-1.5-.6h-.2c0-.2 0-.4.2-.5 0-.2.2-.3.3-.4l.3-.3s.2 0 .3-.2l.6-.3.4-.3s.3 0 .5-.2c.2 0 .4-.2.5-.3.6-.3 1-.6 1.7-.8l2-.5h.7l.7-.2c.6 0 1 0 1.6.2.5 0 1 .4 1.3.7l-1.3 1-1.2 1.3V228.3s0 .2.2.2h.2l1.4-1.6 1.4-1.4 1.5-1.5 1.4-1.3zm-29 12.2v.6c0 .5-.3 1-.4 1.5-.2.6-.5 1-.8 1.3l-.4-1-.2-1.3v-.4-.3-.3l.4-1c.2-.3.4-.5.8-.5 0 0 .2 0 .3.3l.2.5V235zm4.7 1.2v-.4h-.3v-.2h-.3c-.2.2-.2.3-.2.5 0 .6-.2 1-.3 1.6-.2.5-.4 1-.7 1.2-.3.4-.6.6-1 .8-.2.2-.6.3-1 .3h-.2l-.2-.2c-.2 0-.3 0-.5-.2-.3 0-.4-.2-.6-.3.5-.3 1-.8 1.2-1.5.3-.6.6-1.3.7-2v-.7-.5-.3-.2c0-.6 0-1-.4-1.5l-1-1h-.2-.2c-.4 0-.8.3-1.2.6l-1 1.2v.2h-.2l-.8 1.8c-.2.7-.4 1.4-.4 2v1c0 1.4.2 2.5.7 3.4.5 1 1 1.4 2 1.5 0 .2.2.2.2.2 1.2 0 2.4-.7 3.4-2 1-1.2 1.7-2.7 2-4.2v-.4-.4zm-8 1l.2-.3v-.4H138c0 .3-.3.5-.4.8l-.6 1s0 .2-.2.2c0 0 0 .2-.2.3-.2 0-.5.3-.7.5l-1 .2s-.4 0-.7-.2l-.7-.7-.7-1.4c-.3-.5-.3-1-.3-1.6v-1l.4-1.2 1 .7.7 1v.2l.2.2.6-3-.8-.7c-.2-.2-.5-.3-1-.3-.7 0-1.3.4-1.8 1.2-.5.6-1 1.5-1 2.4l-.3 1v1c-.2 1.6 0 3 .4 4 .6 1 1.2 1.7 2 1.8h.2c.4 0 1-.2 1.3-.6l1.2-1.2.3-.3.3-.3 1.2-1.7 1-1.8zm-7.7-.5v-.3-.3h-.3-.2v.2c-.3.2-.4.4-.5.6 0 .2-.2.4-.4.6v.2l-.2.2-1 1.7c-.2.6-.6 1-1 1.6v-3l-.2-3c0-.5-.2-1-.5-1.2-.3-.3-.6-.4-1-.4h-.2-.3l-.5.5c-.2 0-.3.4-.5.7l-.3 1-.3 1-.4.8-.3 1-.2-5.7-2.7 1.4v8.7l2.3-.6 1.7-4.6v1.6c0 .2 0 .5.2.8v.8c0 .8 0 1.4.4 1.8.3.4.7.6 1 .6h.4s.3 0 .4-.2c.3 0 .6-.3 1-.6l.7-1 .6-1.2.7-1.3.8-1 .8-1.3zm-17.3 2.7c0 .2 0 .2-.2.2-.4 0-.6-.2-.8-.8l-.3-1.8v-.2-.2c0-.6 0-1 .2-1.5 0-.4.3-.6.6-.6 0 0 .2 0 .2.2l.2.3v4.4zm7-1.7v-.2-.4h-.4-.2l-.7 1.2-.6 1-.8 1c-.3.5-.5 1-.8 1.2v-8h-3.3v.3l-.2-.2h-.5c-.5 0-1 .2-1.2.7-.4.6-.6 1.3-.8 2l-.3 1v1.5l-.2.5c0 1 .2 2 .5 2.8.3.7.7 1 1.2 1.2.3 0 .7-.2 1-.5l.6-1v-.3h.2c.2.4.4.8.8 1.2.3.4.7.6 1.2.6.3 0 .6 0 1-.3 0-.4.4-.6.6-1l1.5-2c.4-1 1-1.6 1.4-2.3zm-20.5-12l-.7 4.8c-.2 0-.6 0-1-.3-.6 0-1.2-.3-1.7-.6l-2-1c-.7-.5-1-1-1-1.5v-.2c.3-.6.7-1 1.3-1.3.5-.2 1-.3 1.8-.3h1.6l1 .3h.4l.3.2zm7.6 9v.7l.2.7v.5c0 1-.3 2-.7 2.8-.4 1-1 1.3-1.7 1.3h-.4c-.3 0-.5-.2-.7-.3-1-.4-1.8-1-2.7-1.6-.8-.6-1.7-1.2-2.5-2l.5-2.7h.5c.8 0 1.5-.2 2-.8.6-.5 1-1.3 1.4-2.2-.5 0-1 0-1.7-.2H100l.8-4.8c1.7.7 3.2 1.7 4.4 3 1.3 1.4 2 3.3 2.4 5.8zM98 240l-.4 1.5c-.5-.5-1-1-1.3-1.5l-1-2 1.3 1 1.3 1zm11.8-6.6c0-3-1-5.4-2.7-7.5-1.6-2-3.5-3.3-5.7-3.7l.2-1.8v-.4h-.3-.2v.4c-.2.3-.2.6-.3 1v.8h-.7-.5c-1 0-2 .3-3 .8s-2 1.2-2.8 2l-1 1.3-.4 1.7v1.7c.3.4.5.7 1 1 .7.7 1.6 1.3 2.6 2 .8.5 1.8 1 2.8 1.2l-.4 2.2-1.2-1-1.2-1.3-2 2.4c.5 1.5 1 2.7 1.5 3.6.5 1 1.3 2 2.2 2.7h.2c0 .2 0 .2.2.3l.3-2.5c.2 0 .5.3.8.5l1 .6.8.5 1 .6c.4 0 .8.2 1 .3h1.6l.6-.3.5-.4.5-.5c.6-.6 1.2-1.4 1.8-2.4.5-1 1-2 1.3-3l.4-1.5c0-.7.2-1.2 0-1.6zM264.4 198.6c0 .2 0 .3-.3.4 0 0 0 .3-.3.3v.2h-.3c-1 0-1.7-1-2.3-3l-1-7v-.8-.8c0-2.3.3-4.2.6-5.8.4-1.6 1-2.4 2-2.4.3 0 .6.2.8.6l.7 1.3.2.6.2.5v15.8zm22.3-6.4v-.3l.2-.4v-.4-.3c0-.6 0-1-.3-1.3-.2-.4-.5-.5-1-.5h-.4c0 .2-.3.4-.4.6-1 1.3-1.7 2.7-2.5 4-1 1.5-1.7 2.8-2.4 4.2l-2.4 4c-.8 1.4-1.6 2.8-2.5 4v.4-30.8h-10.7v1.4l-.3-.3-.3-.3-.7-.5c-.2-.2-.4-.2-.7-.2h-.5c-1.7 0-3 1-4 3.3-1.2 2.3-2 4.7-2.8 7.3l-.8 4.2-.3 3.6-.3 2v1.8c0 4 .5 7.6 1.5 10.4 1 2.8 2.2 4.3 3.8 4.6h.3c1.2 0 2.2-.6 3.2-2 1-1.2 1.7-2.6 2.2-4l.3-.6c0-.2 0-.4.2-.6.6 2 1.4 3.6 2.5 5 1 1.4 2.4 2.2 4 2.2 1 0 2-.4 2.8-1.2 1-.8 1.7-2 2.4-3 1.5-3 3-5.6 4.8-8.3l5-8zm-42.8-41l-.7 3.5-1 5-2 6.3c-1 2-1.7 3-2.6 3 0-9.7.4-17.6 1.4-24 1-6.3 2.5-9.6 4.2-9.8h.6c.3.4.5 1.2.6 2.3l.3 4c0 1.2 0 2.7-.2 4.4 0 1.6-.3 3.4-.6 5.3zm2.2 50c-.4 1-1 1.6-1.4 2-.5.5-1 .8-1.7 1-.4 0-1-.3-1.4-.6-.5-.3-1-.8-1.4-1.5 0-1-.3-2-.4-3 0-.8-.3-1.8-.4-2.8l-.3-3c0-1 0-2-.2-3 .3-1.6 1-3 1.7-4 .8-1.2 1.7-1.8 2.6-1.8h.8c.2 0 .4.2.6.4.3.2.7.4 1 .8l.8 1.4c.4 1 .8 1.8 1 2.8.3 1 .4 2 .5 3v1.3c0 1.4 0 2.7-.4 4-.2 1.2-.6 2.3-1 3.3zm4.3-21c-.5-1.3-1-2.5-2-3.3-.8-1-1.7-1.4-2.8-1.4-1.5 0-3 .8-4.2 2.2-1.3 1.5-2.4 3-3.4 5V180v-2.5c-.2-.8-.2-1.7-.3-2.6v-2.6c1.5 0 2.7-1.2 4-3.5 1-2.4 2-5 2.6-7.7.5-1.7 1-3.5 1.2-5.2l.7-4 .5-4.8V143c0-3.4 0-6-.7-8.2-.6-2-1.3-3.4-2.3-3.7h-.6-.3c-1.4 0-2.7.8-4 2.5l-3 5.5-.8 2.4-.8 2c-1 3.7-2 8-2.8 12.8-.8 4.8-1.4 10-1.7 15.5l-.3 6v5.7c0 8 .6 15 2 20.4 1.4 5.5 3.8 8.5 7.2 9v-.2h.7c2.8 0 5.4-1.8 7.5-6 2.2-4 3.7-8.3 4.4-13l.3-3V188v-4.2l-1-3.5zm-17 8.5v-.4c0-.5 0-1-.3-1.3-.2-.3-.5-.5-.8-.5h-.3l-.4.5c-.2.2-.3.5-.3 1l-1.5 4.4-3.3 6.6c-.7 1.3-1.5 2.6-2.4 3.8-.7 1.3-1.5 2.5-2.4 3.6l-.8-13-.8-13v-.3-.2l-.5-1.4c0-.4-.3-.8-.6-1l-1.4-1.3-1.3-.2c-1 0-2 .4-2.8 1.4-1 1-1.5 2.2-2 3.7-1 2.5-1.8 5-2.6 8-1 2.6-2 5.3-2.8 8v-4.2l-.2-4v-4.2c-.2-1.4-.2-2.7-.2-4 0-1.3-.4-2.3-1-3-.5-1-1.2-1.5-2-1.7 0-.2-.2-.2-.4-.2h-.4c-1 0-2 .4-2.8 1.4-.8 1-1.4 2-2 3.6l-1.6 4.5-1.5 4.6-1.5 4.5c-.6 1.6-1 3-1.7 4.6l-.2-22-10-1 .4 18.4.3 18.4h7.4l7.6-21.6.7 21.6h9.7l-.3-8.4 4.3-13 .3 6.5.5 6.5c0 2 .4 3.8.7 5 .4 1.5.8 2.5 1.4 3.3.4.5 1 .8 1.3 1 .3.2.7.3 1.2.3H217.5c.8-.4 1.6-1 2.3-1.5l2-2s0-.2.3-.4c.2 0 .3-.2.4-.4l.4-.5c.2 0 .4-.2.5-.4 1-1.2 1.7-2.4 2.6-3.8 1-1.4 1.8-2.8 2.6-4.2 1.3-2.4 2.4-4.8 3.3-7 1-2.2 1.4-3.8 1.6-5zm-51.2-.3l.2-.5v-.7c0-.5 0-1-.2-1.3-.3-.3-.6-.5-1-.5h-.4c-.3.2-.5.5-.6.8l-1.2 2.3-1.2 2.5c-1 2.4-2.2 4.7-3.4 7l-3.6 7-.5-15-.5-15.4-9 3.2-2 10.4c-1 3.5-1.8 7-3 10.3l-.5-24.8-9.6 5c0 3.8 0 7.6.2 11.4 0 4 0 7.7.2 11.6v3.1l1 3.8c.5 1.2 1.2 2 2 2.6.4 0 .6.2.8.3l.7.2c1.2 0 2.4-1 3.5-2.7 1-1.8 2-3.8 2.8-6l1.4-4 1-3.2v4.4l.2 2.2v2.2c0 3 .6 5.4 1.6 7 1 1.3 2.2 2 3.5 2h1.3l1-.5c1.2-.6 2.2-1.4 3.2-2.4s2-2.4 2.6-4c1-1.4 1.6-3 2.4-4.4l2.3-4.6 2.3-4.6 2.3-4.6zm-55-50c.3 1 .6 2.2.7 3.4.2 1.2.3 2.6.3 4v3.2l-.5 3.3c-.4 2.6-1 5.2-1.7 7.7-.6 2.6-1.4 4.8-2 6.7l-.5 1-.4 1v-9.3-4.5-4.7c0-2 0-4 .3-5.8 0-1.8.4-3.4.8-4.7l1-2.2c.3-.6.6-1 1-1 0 0 0 .2.2.2h.2c0 .2.3.4.4.6.2.2.3.6.4 1zm.5 47c.6 0 1 .4 1.2.8.3.5.4 1 .4 1.7v1l-.3 1.2c-.2 1.2-.7 2.4-1.5 3.4-.7 1-1.5 1.5-2.5 1.5h-.5v-1.7c0-.8 0-1.5.2-2.2.2-1.4.5-2.6 1-3.8.4-1 1-1.7 2-1.7zm20.4 8.2l.2-.6v-.6c0-.5 0-1-.3-1.2 0-.3-.4-.5-.7-.5h-.2l-.4.3-.3.6-1.4 3-1.5 3c-.4 1-1 2-1.3 3-.5 1-1 2-1.3 3l-8.7-7.5.5-.7c0-.3.2-.6.4-1l1.5-4c.5-1.7 1-3.3 1-5l.4-2.3.3-2c0-1.5-.2-2.8-.5-4-.2-1-.7-2-1.5-2.8-.3-.4-.7-.6-1-.8l-1.2-.2h-.4c0 .2-.3.2-.4.2-1 .4-2.3 1.4-3.4 3-1 1.6-2 3.2-2.8 5l-1 2.5c-.3.7-.6 1.5-.7 2.2v-12c1.7-3 3.3-6.8 4.6-11 1.2-4 2-8.2 2.3-12.5l.2-2.4v-2.5c0-4.5-.5-7.8-1.7-10-1.2-2.4-2.6-3.6-4.2-3.6-.4 0-.8 0-1.2.2-.4 0-.8.3-1.2.6-1 .6-2 1.5-3 3-.8 1.3-1.7 3-2.5 5.3-.8 2-1.5 4.7-2 7.8-.5 3.2-.8 6.6-.8 10.6v53.2h9.4v-13l1.8 3.4c.5 1.2 1 2.4 1.8 3.5l1 1.8.8 1.7c.8 1.6 1.7 2.8 2.6 3.4 1 .7 2 1 2.8 1.2 1.4 0 2.8-.7 4-2 1.4-1.3 2.6-3 3.7-5l2-4.6c.8-1.6 1.5-3.2 2-5 .2 0 .3-.2.4-.4l.2-.6.8-1.8.8-1.8zm-54.7 5c0 .2-.2.3-.3.4-.2 0-.3.3-.4.3 0 0 0 .2-.2.2-1 0-1.8-1-2.4-3-.5-2.2-1-4.6-1-7v-.8-.8c0-2.3 0-4.2.5-5.8.4-1.6 1-2.4 2-2.4.3 0 .6.2.8.6.3.4.5.8.6 1.3l.3.6s0 .3.2.5v15.8zm22.2-6.4l.2-.3v-.4-.4-.3c0-.6 0-1-.3-1.3-.2-.4-.5-.5-.8-.5h-.6l-.4.6c-1 1.3-1.7 2.7-2.5 4L109 198l-2.3 4c-1 1.4-1.7 2.8-2.5 4v.4-30.8H93.3v1.4l-.3-.3-.3-.3-.6-.5c0-.2-.3-.2-.6-.2H91c-1.8 0-3.2 1-4.3 3.3-1 2.3-2 4.7-2.6 7.3l-.7 4.2-.4 3.6-.2 2v1.8c0 4 .4 7.6 1.4 10.4 1 2.8 2.3 4.3 3.8 4.6h.4c1 0 2.2-.6 3-2 1-1.2 2-2.6 2.4-4l.3-.6.2-.6c.6 2 1.5 3.6 2.6 5 1 1.4 2.4 2.2 4 2.2 1 0 2-.4 2.8-1.2.8-.8 1.6-2 2.3-3 1.6-3 3.2-5.6 4.8-8.3l5-8zm-34.3 15.2c0-.5-.2-1-.3-1.2 0-.4 0-.8-.2-1.2l-.2-.5v-.5c-.3-.5-.4-1-.6-1.7l-.2-1.6-.3-12.8v-13-7-7.2L79 159l-.6-2s0-.3-.2-.4v-.4l-.6-1.3c0-.6-.3-1-.4-1.4l-1.7 1.5-2.2 2-.7.6-.6.6-2.2 2.2c-.6.7-1 1.3-1 2-1.8 5.4-3.4 10.8-5 16.3-1.5 5.5-3 11-4.8 16.4v-7c0-2.2 0-4.5.2-7 0-6.8 0-13.7.2-20.7V137v-2.5c0-2-.4-3.5-1-5-.3-1.6-1-2.4-2.3-2.4-.2 0-.5 0-.8.2-.3 0-.6.2-1 .4-1.6 1-3 2.2-4.5 4-1.4 1.8-2.6 3.7-3.7 6-1.4 3-2.5 6.2-3.3 9.8-1 3.6-1.5 7.2-2 11l-.5 4-.5 4.3c0 .6 0 1.2-.2 1.7l-.2 1.7-.5 4c0 1.3-.3 2.7-.4 4-1 7-2 13.6-3.2 20-1.2 6.3-2.6 11-4.4 14.4-.3.5-.5 1-.8 1-.3.4-.6.5-.8.5-.7 0-1.2-.5-1.7-1.4-.5-.8-1-1.7-1.3-2.7 0-.7-.3-1.3-.4-1.8l-.4-1.3c-.7-3.3-1.3-6.6-1.6-10-.3-3.2-.5-6.5-.5-10v-5.5-5.6l-8.6 5.5c-.2 2-.3 4.6-.3 7.7 0 3.2 0 6.4.3 9.8.3 5 1.2 9.6 2.6 14 1.4 4 3.6 6.5 6.7 7 1.6 0 3-.3 4.4-1 1.4-1 2.6-2 3.7-3.7 1.6-2.8 3-6.4 4-10.8 1.2-4.5 2-9 2.8-13.7l1.5-10.7 1.2-9.3V169l.3-1.5.5-4.4.5-4.3c.5-3.4 1-6.8 2-10.2.7-3.3 1.7-6.3 3-9l.6-1h.4c.3-.2.6 0 .8.7l.2 2.2v12.2l-.3 12v11.7l-.2 12c0 4 .2 7.8.8 11.5.6 3.7 1.4 7.4 2.4 11 0 0 .2 0 .3-.2.2 0 .3 0 .4-.2l.6-.3.6-.2c.4-.5 1-1 1.6-1.3.6-.4 1-1 1.5-1.5l12-40.5c0 6.5.3 13 .5 19.5 0 6.6.3 13 .5 19.5 0 1.7.5 3.2 1 4.3l2.4 3 .2.2.2.3 6.6-7z" fill="#231F20" fill-rule="nonzero"/>
  <path d="M267 198.6c0 .2-.2.3-.3.4-.2 0-.3.3-.4.3 0 0 0 .2-.2.2-1 0-1.7-1-2.3-3-.5-2.2-1-4.6-1-7v-.8-.8c0-2.3 0-4.2.5-5.8.4-1.6 1-2.4 2-2.4.3 0 .6.2.8.6.3.4.5.8.6 1.3l.2.6s0 .3.2.5v15.8zm22.2-6.4l.2-.3v-.4c.2 0 .2-.2.2-.4v-.3c0-.6 0-1-.4-1.3-.2-.4-.5-.5-.8-.5h-.5c-.3.2-.4.4-.5.6l-2.5 4-2.4 4.2-2.4 4-2.5 4v.4-30.8h-10.8v1.4c-.2 0-.3-.2-.4-.3-.2 0-.3-.2-.4-.3l-.6-.5c-.2-.2-.4-.2-.7-.2h-.6c-1.7 0-3 1-4.2 3.3-1 2.3-2 4.7-2.6 7.3l-.8 4.2-.4 3.6v3.8c0 4 .4 7.6 1.3 10.4 1 2.8 2.3 4.3 3.8 4.6h.4c1 0 2-.6 3-2 1-1.2 1.8-2.6 2.3-4l.3-.6v-.6c.7 2 1.6 3.6 2.7 5 1 1.4 2.4 2.2 4 2.2 1 0 2-.4 2.8-1.2 1-.8 1.7-2 2.5-3 1.6-3 3.2-5.6 5-8.3 1.5-2.7 3-5.4 4.7-8zm-42.7-41c0 .8-.3 2-.6 3.5l-1.2 5c-.6 2.4-1.3 4.5-2 6.3-.8 2-1.6 3-2.5 3 0-9.7.4-17.6 1.4-24 1-6.3 2.4-9.6 4-9.8h.8c.3.4.5 1.2.6 2.3l.2 4v4.4l-.7 5.3zm2.3 50c-.4 1-1 1.6-1.4 2-.6.5-1.2.8-1.8 1-.5 0-1-.3-1.4-.6-.5-.3-1-.8-1.4-1.5l-.4-3c0-.8-.3-1.8-.4-2.8l-.3-3-.3-3c.3-1.6 1-3 1.7-4 1-1.2 1.8-1.8 2.7-1.8h.6l.7.4 1 .8.8 1.4 1 2.8c.2 1 .4 2 .4 3v1.3c0 1.4 0 2.7-.3 4-.3 1.2-.7 2.3-1.2 3.3zm4.3-21c-.4-1.3-1-2.5-2-3.3-.7-1-1.6-1.4-2.7-1.4-1.5 0-3 .8-4.3 2.2-1.2 1.5-2.4 3-3.3 5V180c-.2-.8-.2-1.7-.3-2.5V175v-2.6c1.3 0 2.6-1.2 3.7-3.5 1.2-2.4 2.2-5 3-7.7.4-1.7.8-3.5 1-5.2.4-1.6.6-3 .7-4 .3-1.6.4-3.2.5-4.8l.2-4.3c0-3.4-.3-6-.8-8.2-.6-2-1.4-3.4-2.4-3.7h-.5-.4c-1.5 0-2.8.8-4 2.5-1.2 1.7-2.2 3.5-3 5.5l-.8 2.4-.7 2c-1 3.7-2 8-2.8 12.8-1 4.8-1.4 10-1.8 15.5l-.3 6-.2 5.7c0 8 .7 15 2.2 20.4 1.4 5.5 3.8 8.5 7.2 9v-.2h.7c2.7 0 5.2-1.8 7.4-6 2.2-4 3.6-8.3 4.4-13l.2-3 .2-2.7c0-1.5 0-3-.3-4.2-.2-1.3-.5-2.4-1-3.5zm-16.8 8.5v-.4c0-.5 0-1-.4-1.3-.3-.3-.5-.5-1-.5-.3 0-.5.3-.6.5-.2.2-.3.5-.4 1 0 .8-.6 2.3-1.5 4.4L229 199c-.7 1.3-1.4 2.6-2.3 3.8l-2.5 3.6-.8-13-.8-13v-.3-.2l-.5-1.4c0-.4-.3-.8-.6-1-.3-.6-.8-1-1.2-1.3l-1.4-.2c-1 0-1.8.4-2.7 1.4-.8 1-1.5 2.2-2 3.7l-2.6 8-2.6 8v-4.2c-.2-1.3-.2-2.7-.2-4 0-1.5 0-2.8-.2-4.2v-4c0-1.3-.4-2.3-1-3-.6-1-1.2-1.5-2-1.7 0-.2-.3-.2-.4-.2h-.4c-1 0-2 .4-2.8 1.4-.8 1-1.5 2-2 3.6l-1.6 4.5-1.5 4.6c-.6 1.4-1 3-1.7 4.5l-1.6 4.6-.3-22-9.7-1c0 6.2.2 12.3.3 18.4 0 6 0 12.3.3 18.4h7.2l7.6-21.6.8 21.6h9.6l-.2-8.4 4.2-13 .4 6.5.5 6.5c.2 2 .4 3.8.8 5 .3 1.5.8 2.5 1.4 3.3.4.5 1 .8 1.3 1 .4.2.8.3 1.3.3h1.4c.8-.4 1.5-1 2.2-1.5.8-.6 1.4-1.2 2-2 .2 0 .3-.2.5-.4l.3-.4.4-.5.3-.4c1-1.2 1.8-2.4 2.7-3.8l2.5-4.2c1.2-2.4 2.4-4.8 3.3-7 1-2.2 1.5-3.8 1.7-5zm-51.3-.3v-.5-.7c.2-.5 0-1-.2-1.3-.2-.3-.5-.5-1-.5h-.4c0 .2-.3.5-.5.8-.5.7-.8 1.5-1.2 2.3l-1.2 2.5c-1 2.4-2.3 4.7-3.4 7l-3.6 7-.5-15c0-5.2-.3-10.3-.4-15.4l-9 3.2-2 10.4c-1 3.5-1.8 7-3 10.3l-.5-24.8-9.6 5 .3 11.4.2 11.6v3.1l1 3.8c.5 1.2 1.2 2 2 2.6.3 0 .6.2.8.3l.7.2c1.3 0 2.4-1 3.5-2.7 1-1.8 2-3.8 2.8-6l1.5-4c.3-1.3.7-2.4 1-3.2v4.4c0 .7 0 1.4.2 2.2v2.2c0 3 .7 5.4 1.7 7 1 1.3 2.2 2 3.5 2h1l1.3-.5c1-.6 2-1.4 3-2.4s2-2.4 2.7-4l2.3-4.4 2.3-4.6 2.3-4.6 2.3-4.6zm-55.2-50c.4 1 .7 2.2.8 3.4.2 1.2.3 2.6.3 4l-.3 3.2-.3 3.3c-.4 2.6-1 5.2-1.7 7.7-.7 2.6-1.5 4.8-2.3 6.7 0 .4-.2.7-.3 1 0 .4-.2.7-.3 1v-9.3-4.5-4.7-5.8c.3-1.8.6-3.4 1-4.7.3-1 .6-1.7 1-2.2.2-.6.5-1 .8-1l.2.2h.2c0 .2.3.4.4.6l.4 1zm.6 47c.5 0 1 .4 1.2.8.2.5.4 1 .4 1.7v1l-.3 1.2c-.3 1.2-1 2.4-1.6 3.4-.6 1-1.5 1.5-2.5 1.5h-.4v-1.7c0-.8.2-1.5.3-2.2 0-1.4.5-2.6 1-3.8.4-1 1-1.7 2-1.7zm20.4 8.2l.2-.6v-.6c0-.5 0-1-.3-1.2-.2-.3-.5-.5-.8-.5h-.3-.2l-.3.3-.3.6-1.5 3-1.4 3-1.2 3-1.4 3-8.5-7.5.3-.7.4-1c.6-1.2 1-2.5 1.6-4 .4-1.7.8-3.3 1-5l.4-2.3v-2c0-1.5 0-2.8-.3-4-.3-1-.8-2-1.5-2.8-.4-.4-.8-.6-1.2-.8l-1-.2h-.6l-.4.2c-1.2.4-2.3 1.4-3.4 3-1 1.6-2 3.2-2.8 5l-1 2.5-.8 2.2v-12c1.8-3 3.4-6.8 4.7-11 1.2-4 2-8.2 2.4-12.5v-2.4-2.5c0-4.5-.5-7.8-1.6-10-1.2-2.4-2.6-3.6-4.2-3.6-.4 0-.8 0-1.2.2-.4 0-1 .3-1.2.6-1 .6-2 1.5-3 3-1 1.3-1.7 3-2.6 5.3-.8 2-1.4 4.7-2 7.8-.5 3.2-.7 6.6-.7 10.6v53.2h9.4l-.2-13 2 3.4c.5 1.2 1 2.4 1.7 3.5l1 1.8 1 1.7c.7 1.6 1.6 2.8 2.5 3.4 1 .7 2 1 2.8 1.2 1.4 0 2.8-.7 4-2 1.4-1.3 2.6-3 3.6-5 .8-1.4 1.5-3 2.2-4.6.7-1.6 1.4-3.2 2-5 .2 0 .3-.2.4-.4 0-.2 0-.4.2-.6l.8-1.8.8-1.8zm-54.8 5c0 .2 0 .3-.2.4-.2 0-.3.3-.4.3 0 0 0 .2-.2.2H95c-1 0-1.7-1-2.2-3-.6-2.2-1-4.6-1-7v-.8-.8c0-2.3 0-4.2.5-5.8.4-1.6 1-2.4 2-2.4.2 0 .5.2.8.6l.7 1.3c0 .2 0 .4.2.6v16.3zm22.3-6.4s0-.2.2-.3v-.4-.4-.3c0-.6 0-1-.2-1.3-.2-.4-.5-.5-.8-.5h-.5l-.4.6c-1 1.3-1.7 2.7-2.5 4-.7 1.5-1.5 2.8-2.3 4.2l-2.5 4-2.4 4v.4-30.8H96v1.4c-.2 0-.3-.2-.4-.3l-.3-.3-.6-.5c-.2-.2-.5-.2-.7-.2h-.5c-1.7 0-3 1-4.2 3.3-1 2.3-2 4.7-2.6 7.3-.4 1.4-.6 2.8-.8 4.2-.3 1.4-.4 2.6-.5 3.6v2c-.2.5-.2 1.2-.2 1.8 0 4 .5 7.6 1.5 10.4 1 2.8 2.2 4.3 3.8 4.6h.3c1 0 2.2-.6 3-2 1-1.2 1.8-2.6 2.4-4l.2-.6c0-.2 0-.4.2-.6.6 2 1.5 3.6 2.6 5 1 1.4 2.3 2.2 3.8 2.2 1.2 0 2-.4 3-1.2.8-.8 1.6-2 2.3-3 1.6-3 3.3-5.6 5-8.3l4.8-8zM84 207.4c0-.5-.2-1-.3-1.2l-.4-1.2v-.5c-.2-.2-.2-.4-.2-.5 0-.5-.3-1-.4-1.7l-.2-1.6c-.2-4.2-.3-8.5-.3-12.8v-13-7-7.2c0-.5 0-1-.3-1.7 0-.6-.3-1.3-.6-2v-.4-.4c-.3-.4-.4-1-.6-1.3l-.4-1.4-1.7 1.5-2.3 2-.6.6-.6.6c-1 .7-1.6 1.5-2.2 2.2-.6.7-1 1.3-1.2 2l-4.8 16.3-4.8 16.4v-7c0-2.2 0-4.5.2-7v-20.7c.2-7 .2-14 .2-20.8V137v-2.5c-.2-2-.4-3.5-1-5-.3-1.6-1-2.4-2.3-2.4-.3 0-.6 0-1 .2l-.8.4c-1.7 1-3.3 2.2-4.6 4-1.4 1.8-2.6 3.7-3.7 6-1.5 3-2.7 6.2-3.5 9.8-.8 3.6-1.4 7.2-2 11 0 1.3-.3 2.7-.4 4 0 1.5-.3 3-.4 4.3 0 .6-.2 1.2-.3 1.7 0 .6 0 1-.2 1.7 0 1.4-.2 2.7-.4 4 0 1.3-.3 2.7-.5 4-.8 7-2 13.6-3 20-1.2 6.3-2.7 11-4.4 14.4-.3.5-.6 1-.8 1-.3.4-.6.5-1 .5-.5 0-1-.5-1.6-1.4-.5-.8-1-1.7-1.2-2.7l-.5-1.8c0-.5-.2-1-.3-1.3-.8-3.3-1.3-6.6-1.6-10-.3-3.2-.5-6.5-.5-10v-5.5-5.6l-8.6 5.5V199c.5 5 1.4 9.6 2.8 14 1.3 4 3.6 6.5 6.7 7 1.5 0 3-.3 4.3-1 1.4-1 2.6-2 3.6-3.7 1.6-2.8 3-6.4 4-10.8 1.2-4.5 2-9 2.8-13.7l1.5-10.7 1.2-9.3c0-.5 0-1 .2-1.6 0-.5 0-1 .2-1.5 0-1.4.2-3 .4-4.4l.5-4.3c.3-3.4 1-6.8 1.7-10.2.8-3.3 2-6.3 3.2-9 0-.4.3-.7.5-1h.4c.3-.2.5 0 .7.7.2.6.3 1.3.3 2.2v12.2l-.3 12c0 3.8 0 7.8-.2 11.7 0 4 0 8-.2 12 0 4 .3 7.8 1 11.5.5 3.7 1.3 7.4 2.2 11 0 0 .3 0 .4-.2 0 0 .2 0 .3-.2.2 0 .3-.2.5-.3l.7-.2c.5-.5 1-1 1.7-1.3.6-.4 1-1 1.4-1.5l12-40.5c0 6.5.3 13 .4 19.5l.6 19.5c0 1.7.4 3.2 1 4.3l2.4 3 .2.2s0 .2.2.3l6.6-7z" fill="#fff" fill-rule="nonzero"/>
  <defs>
    <linearGradient id="a" x2="1" gradientUnits="userSpaceOnUse" gradientTransform="matrix(4.056 -107.232 109.715 3.964 92.736 243.899)">
      <stop offset="0%" stop-color="#FFB200"/>
      <stop offset="100%" stop-color="#FF5722"/>
    </linearGradient>
  </defs>
</svg>
